# xmcd
#
# Track frame offsets:
# 150
# 11329
# 23175
# 36010
# 48506
# 58759
# 69227
# 80175
# 92753
# 104096
# 116231
# 128517
# 138615
# 150205
# 158666
# 166491
# 176859
# 189035
#
# Disc length: 2669 seconds
#
#
# Revision: 4
# Processed by: cddbd v1.5.2PL0 Copyright (c) Steve Scherf et al.
# Submitted via: FreeRIP 2.60 
#
DISCID=ea0a6b12
DTITLE=Johnny Cash - Train Of Love
DYEAR=2004
DGENRE=Country
TTITLE0=Cry, Cry, Cry
TTITLE1=So Doggone Lonesome
TTITLE2=Folsom Prison Blues
TTITLE3=I Walk The Line
TTITLE4=Get Rhythm
TTITLE5=There You Go
TTITLE6=Train Of Love
TTITLE7=Next In Line
TTITLE8=Don't Make Me Go
TTITLE9=Home Of The Blues
TTITLE10=Give My Love To Rose
TTITLE11=Ballad Of A Teenage Queen
TTITLE12=Big River
TTITLE13=Guess Things Happen That Way
TTITLE14=Come In Stranger
TTITLE15=The Ways Of A Woman In Love
TTITLE16=You're The Nearest Thing To Heaven
TTITLE17=Mean-Eyed Cat
EXTD=
EXTT0=
EXTT1=
EXTT2=
EXTT3=
EXTT4=
EXTT5=
EXTT6=
EXTT7=
EXTT8=
EXTT9=
EXTT10=
EXTT11=
EXTT12=
EXTT13=
EXTT14=
EXTT15=
EXTT16=
EXTT17=
PLAYORDER=
